<svg width="40.000000" height="40.000000" viewBox="0 0 40 40" fill="none" xmlns="http://www.w3.org/2000/svg" xmlns:xlink="http://www.w3.org/1999/xlink">
    <defs/>
    <rect id="Rectangle 1" x="0.500000" y="0.500000" rx="19.500000" width="39.000000" height="39.000000" stroke="#1F1F1F" stroke-opacity="1.000000" stroke-width="1.000000"/>
    <path id="Vector" d="M21.65 20.36L25.37 20.36L25.96 16.56L21.65 16.56L21.65 14.48C21.65 12.9 22.16 11.49 23.63 11.49L26 11.49L26 8.17C25.58 8.12 24.7 8 23.05 8C19.58 8 17.55 9.83 17.55 14.02L17.55 16.56L14 16.56L14 20.36L17.55 20.36L17.55 30.82C18.26 30.92 18.97 31 19.7 31C20.37 31 21.01 30.93 21.65 30.85L21.65 20.36Z" fill="#1F1F1F" fill-opacity="1.000000" fill-rule="nonzero"/>
</svg>
