<svg width="40.000000" height="40.000000" viewBox="0 0 40 40" fill="none" xmlns="http://www.w3.org/2000/svg" xmlns:xlink="http://www.w3.org/1999/xlink">
    <defs/>
    <rect id="Rectangle 1" x="0.500000" y="0.500000" rx="19.500000" width="39.000000" height="39.000000" stroke="#1F1F1F" stroke-opacity="1.000000" stroke-width="1.000000"/>
    <path id="instagram" d="M24.09 10L15.9 10C14.81 10 14.09 10.24 13.49 10.48C12.89 10.72 12.28 11.08 11.68 11.68C11.08 12.28 10.84 12.77 10.48 13.49C10.24 14.09 10.12 14.81 10 15.9L10 24.09C10 25.18 10.24 25.9 10.48 26.5C10.72 27.1 11.08 27.71 11.68 28.31C12.28 28.91 12.77 29.15 13.49 29.51C14.09 29.75 14.81 29.87 15.9 30L24.09 30C25.18 30 25.9 29.75 26.5 29.51C27.1 29.27 27.71 28.91 28.31 28.31C28.91 27.71 29.15 27.22 29.51 26.5C29.75 25.9 29.87 25.18 30 24.09L30 15.9C30 14.81 29.75 14.09 29.51 13.49C29.27 12.89 28.91 12.28 28.31 11.68C27.71 11.08 27.22 10.84 26.5 10.48C25.9 10.24 25.18 10.12 24.09 10ZM15.9 11.8L24.09 11.8C25.06 11.8 25.54 12.04 25.9 12.16C26.38 12.4 26.74 12.53 27.1 12.89C27.47 13.25 27.71 13.61 27.83 14.09C27.95 14.45 28.07 14.93 28.19 15.9L28.19 24.09C28.19 25.06 27.95 25.54 27.83 25.9C27.59 26.38 27.47 26.74 27.1 27.1C26.74 27.46 26.38 27.71 25.9 27.83C25.54 27.95 25.06 28.07 24.09 28.19L15.9 28.19C14.93 28.19 14.45 27.95 14.09 27.83C13.61 27.59 13.25 27.46 12.89 27.1C12.53 26.74 12.28 26.38 12.16 25.9C12.04 25.54 11.92 25.06 11.8 24.09L11.8 15.9C11.8 14.93 12.04 14.45 12.16 14.09C12.4 13.61 12.53 13.25 12.89 12.89C13.25 12.53 13.61 12.28 14.09 12.16C14.45 12.04 14.93 11.92 15.9 11.8ZM26.5 14.69C26.5 15.36 25.96 15.9 25.3 15.9C24.63 15.9 24.09 15.36 24.09 14.69C24.09 14.03 24.63 13.49 25.3 13.49C25.96 13.49 26.5 14.03 26.5 14.69ZM20 14.81C17.1 14.81 14.81 17.1 14.81 20C14.81 22.89 17.1 25.18 20 25.18C22.89 25.18 25.18 22.89 25.18 20C25.18 17.1 22.89 14.81 20 14.81ZM20 23.37C18.19 23.37 16.62 21.92 16.62 20C16.62 18.19 18.07 16.62 20 16.62C21.8 16.62 23.37 18.07 23.37 20C23.37 21.8 21.8 23.37 20 23.37Z" fill="#1F1F1F" fill-opacity="1.000000" fill-rule="evenodd"/>
</svg>
