<svg width="17.000000" height="19.000000" viewBox="0 0 17 19" fill="none" xmlns="http://www.w3.org/2000/svg" xmlns:xlink="http://www.w3.org/1999/xlink">
    <desc>
        Created with Pixso.
    </desc>
    <defs/>
    <path id="Vector" d="M0.5 9.7C0.5 8.58 0.5 8.01 0.71 7.59C0.9 7.21 1.21 6.9 1.59 6.71C2.01 6.5 2.58 6.5 3.7 6.5L5.73 6.5L11.26 6.5L13.3 6.5C14.42 6.5 14.97 6.5 15.4 6.71C15.78 6.9 16.09 7.21 16.28 7.59C16.5 8.01 16.5 8.57 16.5 9.69L16.5 15.3C16.5 16.42 16.5 16.98 16.28 17.4C16.09 17.78 15.78 18.09 15.4 18.28C14.98 18.5 14.42 18.5 13.3 18.5L3.69 18.5C2.57 18.5 2.01 18.5 1.59 18.28C1.21 18.09 0.9 17.78 0.71 17.4C0.5 16.98 0.5 16.42 0.5 15.3L0.5 9.7ZM5.73 6.5C5.6 6.5 5.5 6.39 5.5 6.26L5.5 3.5C5.5 1.84 6.84 0.5 8.5 0.5C10.15 0.5 11.5 1.84 11.5 3.5L11.5 6.26C11.5 6.39 11.39 6.5 11.26 6.5" stroke="#FFFFFF" stroke-opacity="1.000000" stroke-width="1.000000" stroke-linejoin="round"/>
</svg>
