<svg width="19.605469" height="19.605469" viewBox="0 0 19.6055 19.6055" fill="none" xmlns="http://www.w3.org/2000/svg" xmlns:xlink="http://www.w3.org/1999/xlink">
    <desc>
        Created with Pixso.
    </desc>
    <defs/>
    <path id="Icon" d="M5.95 6.79C5.89 6.67 5.86 6.61 5.83 6.53C5.75 6.25 5.81 5.9 5.98 5.67C6.03 5.6 6.08 5.54 6.2 5.43C6.55 5.08 6.72 4.9 6.84 4.73C7.27 4.06 7.27 3.21 6.84 2.55C6.72 2.37 6.55 2.2 6.2 1.85L6 1.65C5.47 1.12 5.21 0.85 4.92 0.71C4.35 0.42 3.68 0.42 3.12 0.71C2.83 0.85 2.57 1.12 2.03 1.65L1.88 1.81C1.35 2.34 1.08 2.6 0.88 2.96C0.65 3.36 0.49 3.98 0.5 4.44C0.5 4.86 0.58 5.14 0.74 5.7C1.6 8.74 3.22 11.6 5.61 13.99C8 16.37 10.86 18 13.89 18.86C14.46 19.02 14.74 19.1 15.15 19.1C15.61 19.1 16.23 18.94 16.63 18.72C16.99 18.51 17.26 18.25 17.79 17.72L17.94 17.56C18.48 17.03 18.74 16.76 18.89 16.48C19.17 15.91 19.17 15.24 18.89 14.67C18.74 14.39 18.48 14.12 17.94 13.59L17.75 13.4C17.4 13.05 17.22 12.87 17.05 12.76C16.39 12.33 15.53 12.33 14.87 12.76C14.69 12.87 14.52 13.05 14.17 13.4C14.05 13.51 14 13.57 13.93 13.62C13.69 13.79 13.35 13.84 13.07 13.76C12.99 13.74 12.93 13.71 12.8 13.65C11.35 12.95 9.99 12.01 8.79 10.8C7.59 9.6 6.64 8.24 5.95 6.79Z" stroke="#FFFFFF" stroke-opacity="1.000000" stroke-width="1.000000" stroke-linejoin="round"/>
</svg>
