<svg width="64" height="64" viewBox="0 0 64 64" fill="none" xmlns="http://www.w3.org/2000/svg">    <path d="M56 13H8C7.73478 13 7.48043 13.1054 7.29289 13.2929C7.10536 13.4804 7 13.7348 7 14V50C7 50.2652 7.10536 50.5196 7.29289 50.7071C7.48043 50.8946 7.73478 51 8 51H56C56.2652 51 56.5196 50.8946 56.7071 50.7071C56.8946 50.5196 57 50.2652 57 50V14C57 13.7348 56.8946 13.4804 56.7071 13.2929C56.5196 13.1054 56.2652 13 56 13ZM21 37V27H43V37H21ZM9 37V27H19V37H9ZM45 27H55V37H45V27ZM55 25H33V15H55V25ZM31 15V25H9V15H31ZM9 39H31V49H9V39ZM33 49V39H55V49H33Z" fill="white"/></svg>