<svg width="40.000000" height="40.000000" viewBox="0 0 40 40" fill="none" xmlns="http://www.w3.org/2000/svg" xmlns:xlink="http://www.w3.org/1999/xlink">
    <defs/>
    <rect id="Rectangle 1" x="0.500000" y="0.500000" rx="19.500000" width="39.000000" height="39.000000" stroke="#1F1F1F" stroke-opacity="1.000000" stroke-width="1.000000"/>
    <path id="Vector" d="M11.26 26.55C10.87 26.44 10.51 26.23 10.21 25.95C9.92 25.67 9.7 25.33 9.57 24.95C8.84 22.98 8.62 14.78 10.03 13.16C10.5 12.64 11.17 12.31 11.88 12.26C15.68 11.86 27.39 11.92 28.74 12.39C29.12 12.51 29.46 12.72 29.75 12.98C30.04 13.25 30.26 13.58 30.4 13.95C31.2 15.98 31.23 23.35 30.29 25.3C30.04 25.81 29.62 26.22 29.11 26.47C27.69 27.16 13.13 27.15 11.26 26.55ZM17.28 22.7L24.08 19.25L17.28 15.78L17.28 22.7Z" fill="#1F1F1F" fill-opacity="1.000000" fill-rule="evenodd"/>
</svg>
